<svg xmlns="http://www.w3.org/2000/svg" viewBox="0 0 64 64">
  <!-- Bottle body -->
  <path d="M20 28 L20 52 Q20 58 26 58 L38 58 Q44 58 44 52 L44 28 Z" fill="#4a90d9"/>
  <path d="M20 28 L20 52 Q20 58 26 58 L38 58 Q44 58 44 52 L44 28 Z" fill="none" stroke="#2c5aa0" stroke-width="2"/>
  <!-- Water inside -->
  <path d="M22 35 L22 52 Q22 56 27 56 L37 56 Q42 56 42 52 L42 35 Z" fill="#6bb3f0" opacity="0.7"/>
  <!-- Bottle neck -->
  <rect x="26" y="16" width="12" height="12" fill="#4a90d9" stroke="#2c5aa0" stroke-width="2"/>
  <!-- Cork -->
  <rect x="27" y="8" width="10" height="10" fill="#8b4513" rx="2"/>
  <rect x="27" y="8" width="10" height="10" fill="none" stroke="#654321" stroke-width="1" rx="2"/>
  <!-- Cross on bottle -->
  <rect x="30" y="36" width="4" height="14" fill="#ffffff" opacity="0.8"/>
  <rect x="26" y="40" width="12" height="4" fill="#ffffff" opacity="0.8"/>
  <!-- Shine -->
  <ellipse cx="24" cy="40" rx="2" ry="6" fill="#ffffff" opacity="0.4"/>
</svg>
