<svg xmlns="http://www.w3.org/2000/svg" viewBox="0 0 64 64">
  <!-- Handle -->
  <rect x="8" y="28" width="28" height="8" fill="#4a4a4a" rx="2"/>
  <rect x="8" y="28" width="28" height="8" fill="none" stroke="#333" stroke-width="1" rx="2"/>
  <!-- Handle grip lines -->
  <line x1="12" y1="28" x2="12" y2="36" stroke="#666" stroke-width="1"/>
  <line x1="16" y1="28" x2="16" y2="36" stroke="#666" stroke-width="1"/>
  <line x1="20" y1="28" x2="20" y2="36" stroke="#666" stroke-width="1"/>
  <line x1="24" y1="28" x2="24" y2="36" stroke="#666" stroke-width="1"/>
  <line x1="28" y1="28" x2="28" y2="36" stroke="#666" stroke-width="1"/>
  <!-- Blade -->
  <path d="M36 30 L56 30 Q60 32 56 34 L36 34 Z" fill="#c0c0c0"/>
  <path d="M36 30 L56 30 Q60 32 56 34 L36 34 Z" fill="none" stroke="#888" stroke-width="1"/>
  <!-- Blade shine -->
  <path d="M38 31 L54 31" stroke="#ffffff" stroke-width="1" opacity="0.6"/>
  <!-- Blade edge (sharp side) -->
  <path d="M56 30 Q60 32 56 34" stroke="#666" stroke-width="1.5"/>
</svg>
